<?xml version="1.0" encoding="utf-8"?><svg viewBox="0 0 60 60" xmlns="http://www.w3.org/2000/svg" xmlns:xlink="http://www.w3.org/1999/xlink"><style>:root>svg{display:none}:root>svg:target{display:block}</style><svg viewBox="0 0 10 20" id="facebook" xmlns="http://www.w3.org/2000/svg"><path d="M2.35 3.873v2.754H.334v3.367h2.018V20h4.144V9.994h2.78s.261-1.614.387-3.38H6.51V4.313c0-.344.452-.807.899-.807h2.258V0h-3.07C2.248 0 2.35 3.37 2.35 3.873z"/></svg><svg viewBox="0 0 24 24" id="home" xmlns="http://www.w3.org/2000/svg"><path d="M3 9l9-7 9 7v11a2 2 0 01-2 2H5a2 2 0 01-2-2V9z"/><path d="M9 22V12h6v10"/></svg><svg viewBox="0 0 20 20" id="instagram" xmlns="http://www.w3.org/2000/svg"><g clip-path="url(#ca)"><path d="M0 0h20v20H0z"/><path d="M14.586 0H5.414A5.42 5.42 0 000 5.414v9.172A5.42 5.42 0 005.414 20h9.172A5.42 5.42 0 0020 14.586V5.414A5.42 5.42 0 0014.586 0zM10 15.469A5.475 5.475 0 014.531 10 5.475 5.475 0 0110 4.531 5.475 5.475 0 0115.469 10 5.475 5.475 0 0110 15.469zm5.6-9.648a1.618 1.618 0 01-1.617-1.616c0-.891.725-1.616 1.616-1.616.891 0 1.616.725 1.616 1.616 0 .891-.725 1.616-1.616 1.616z"/><path d="M10 6c-2.206 0-4 1.794-4 4s1.794 4 4 4 4-1.794 4-4-1.794-4-4-4zm5.6-2.238a.444.444 0 100 .888.444.444 0 000-.888z"/></g><defs><clipPath id="ca"><path d="M0 0h20v20H0z"/></clipPath></defs></svg><svg viewBox="0 0 16 27" id="left-btn-slider" xmlns="http://www.w3.org/2000/svg"><path d="M16 3.857L6 13.5l10 9.643L14 27 0 13.5 14 0l2 3.857z"/></svg><svg viewBox="0 0 18 16" id="right-arrow" xmlns="http://www.w3.org/2000/svg"><path d="M1 8h16m-7-7l7 7-7 7"/></svg><svg viewBox="0 0 16 27" id="right-btn-slider" xmlns="http://www.w3.org/2000/svg"><path d="M0 23.143L10 13.5 0 3.857 2 0l14 13.5L2 27l-2-3.857z"/></svg><svg viewBox="0 0 24 22" id="star" xmlns="http://www.w3.org/2000/svg"><path d="M12 0l2.694 8.292h8.719l-7.054 5.124 2.694 8.292L12 16.584l-7.053 5.124 2.694-8.292L.587 8.292h8.719L12 0z"/></svg><svg viewBox="0 0 20 18" id="telegram" xmlns="http://www.w3.org/2000/svg"><path d="M.353 8.643l4.609 1.72L6.746 16.1a.542.542 0 00.861.259l2.569-2.094c.27-.22.653-.23.934-.026l4.633 3.364c.32.231.771.057.851-.329L19.988.948a.543.543 0 00-.727-.617L.348 7.627a.544.544 0 00.005 1.016zm6.105.804L15.465 3.9c.161-.1.328.12.189.249l-7.433 6.91a1.54 1.54 0 00-.478.921l-.253 1.876c-.033.251-.385.276-.454.033l-.974-3.421a.907.907 0 01.396-1.02z"/></svg><svg viewBox="0 0 60 60" id="user-icon" xmlns="http://www.w3.org/2000/svg"><path d="M50 52.5v-5a10 10 0 00-10-10H20a10 10 0 00-10 10v5m20-25c5.523 0 10-4.477 10-10s-4.477-10-10-10-10 4.477-10 10 4.477 10 10 10z"/></svg></svg>